<?xml version="1.0" encoding="UTF-8" standalone="no"?>
<svg
   xmlns:dc="http://purl.org/dc/elements/1.1/"
   xmlns:cc="http://creativecommons.org/ns#"
   xmlns:rdf="http://www.w3.org/1999/02/22-rdf-syntax-ns#"
   xmlns:svg="http://www.w3.org/2000/svg"
   xmlns="http://www.w3.org/2000/svg"
   xmlns:sodipodi="http://sodipodi.sourceforge.net/DTD/sodipodi-0.dtd"
   xmlns:inkscape="http://www.inkscape.org/namespaces/inkscape"
   width="334.92416"
   height="111.73367"
   viewBox="0 0 187.08864 62.414426"
   version="1.1"
   id="svg913"
   sodipodi:docname="oneill.svg"
   inkscape:version="1.0 (4035a4fb49, 2020-05-01)">
  <metadata
     id="metadata919">
    <rdf:RDF>
      <cc:Work
         rdf:about="">
        <dc:format>image/svg+xml</dc:format>
        <dc:type
           rdf:resource="http://purl.org/dc/dcmitype/StillImage" />
        <dc:title></dc:title>
      </cc:Work>
    </rdf:RDF>
  </metadata>
  <defs
     id="defs917" />
  <sodipodi:namedview
     scale-x="0.20001"
     inkscape:document-rotation="0"
     pagecolor="#ffffff"
     bordercolor="#666666"
     borderopacity="1"
     objecttolerance="10"
     gridtolerance="10"
     guidetolerance="10"
     inkscape:pageopacity="0"
     inkscape:pageshadow="2"
     inkscape:window-width="1920"
     inkscape:window-height="1007"
     id="namedview915"
     showgrid="false"
     inkscape:zoom="0.3248"
     inkscape:cx="1216.3337"
     inkscape:cy="442.87984"
     inkscape:window-x="0"
     inkscape:window-y="48"
     inkscape:window-maximized="1"
     inkscape:current-layer="svg913"
     fit-margin-top="0"
     fit-margin-left="0"
     fit-margin-right="0"
     fit-margin-bottom="0" />
  <g
     fill-rule="evenodd"
     clip-rule="evenodd"
     id="g911"
     transform="translate(-2.8331383,-62.230902)">
    <path
       d="m 148.094,107.754 c 1.309,0.084 1.525,0.744 0.312,0.574 0,0 -58.125,-4.051 -86.046,-10.58 C -0.545,83.043 48.758,66.262 92.815,62.957 c 28.403,-2.131 65.745,0.326 67.294,8.734 0.73,3.97 -12.762,8.364 -19.289,8.873 -0.498,0.162 -1.01,-0.121 -0.607,-0.27 7.158,-2.642 13.564,-11.931 -8.555,-13.832 -0.469,-0.041 -0.387,0.215 -0.129,0.291 8.121,1.986 12.873,8.53 1.191,13.236 -0.324,0.124 -0.465,-0.263 -0.379,-0.365 5.432,-23.559 -76.349,-13.94 -88.473,0.049 -5.561,6.417 14.96,13.617 18.916,15.043 16.101,5.922 72.224,11.622 71.606,11.508 C 46.171,95.649 43.872,70.141 105.396,65.792 c 0.402,0.108 0.004,0.338 -0.373,0.258 -7.74,1.073 -42.093,28.144 43.071,41.704 z"
       fill="#cf4044"
       id="path905" />
    <path
       d="m 124.066,122.938 5.736,-11.582 c 0.637,-1.232 -9.346,-1.502 -10.156,-0.123 l -5.799,11.582 c -0.802,1.605 9.366,1.605 10.219,0.123 z M 3.291,116.346 c 2.3,-3.998 12.625,-6.795 23.062,-6.248 10.438,0.547 17.509,4.232 15.209,8.229 -2.301,4 -13.103,6.797 -23.539,6.25 C 7.587,124.03 0.99,120.344 3.291,116.346 Z m 12.441,0.424 c 1.292,-2.246 6.66,-3.648 12.773,-3.328 6.113,0.32 9.544,2.242 8.252,4.488 -1.292,2.246 -6.819,3.648 -12.933,3.328 -6.112,-0.32 -9.385,-2.242 -8.092,-4.488 z m 50.976,6.328 c 1.899,1.164 9.024,1.471 9.683,-0.107 l 5.736,-11.582 c 0.538,-1.363 -9.549,-1.523 -10.279,-0.125 L 68.149,119 56.455,111.336 c -2.043,-1.451 -9.043,-1.451 -9.966,-0.066 l -5.737,11.582 c -0.738,1.488 9.746,1.648 10.598,0.125 l 3.857,-7.557 z m 90.194,0.111 c 0.697,-0.082 1.666,-2.053 1.012,-2.027 -5.762,0.227 -17.402,0.088 -19.873,-1.209 a 0.702,0.702 0 0 1 -0.115,-0.822 l 3.969,-7.857 c 0.664,-1.203 -9.398,-1.479 -10.055,-0.172 l -5.098,10.357 c -0.258,2.232 20.334,3.416 30.16,1.73 z m -44.736,-0.598 c 0.498,-0.201 1.318,-2.16 0.832,-2.109 -4.799,1.795 -22.993,1.891 -21.51,-0.889 0.401,-0.742 1.371,-0.811 1.371,-0.811 l 20.991,-0.527 c 0.564,-0.002 1.258,-1.586 0.785,-1.678 l -19.886,-0.908 c 0,0 -1.353,-0.039 -1.033,-0.781 1.287,-2.947 17.467,-2.365 22.411,-0.912 0.369,0.105 1.246,-1.426 0.93,-1.609 -17.395,-5.6 -35.185,-0.516 -36.693,4.084 -2.554,7.791 20.357,10.093 31.802,6.14 z m 76.527,0.598 c 0.697,-0.082 1.666,-2.053 1.012,-2.027 -5.762,0.227 -17.402,0.088 -19.873,-1.209 a 0.702,0.702 0 0 1 -0.115,-0.822 l 3.969,-7.857 c 0.664,-1.203 -9.398,-1.479 -10.057,-0.172 l -5.096,10.357 c -0.26,2.232 20.334,3.416 30.16,1.73 z"
       id="path907" />
    <path
       d="m 38.65,112.143 c -0.315,-0.486 2.779,-1.582 2.92,-2.838 0,-0.16 0.126,-0.277 0.392,-0.297 10.601,-0.166 -2.089,5.019 -3.312,3.135 z"
       id="path909" />
  </g>
</svg>
